<svg xmlns="http://www.w3.org/2000/svg" viewBox="0 0 1200 630">
  <defs>
    <radialGradient id="glow" cx="0" cy="0" r="1" gradientTransform="translate(255 315) rotate(18) scale(420 390)" gradientUnits="userSpaceOnUse">
      <stop stop-color="#6555e8" stop-opacity=".28" />
      <stop offset="1" stop-color="#6555e8" stop-opacity="0" />
    </radialGradient>
    <linearGradient id="line" x1="64" y1="64" x2="1136" y2="566" gradientUnits="userSpaceOnUse">
      <stop stop-color="#9a8cff" />
      <stop offset="1" stop-color="#6555e8" stop-opacity=".1" />
    </linearGradient>
  </defs>
  <rect width="1200" height="630" fill="#111115" />
  <rect x="32" y="32" width="1136" height="566" rx="32" fill="none" stroke="url(#line)" />
  <rect width="1200" height="630" fill="url(#glow)" />
  <g transform="translate(92 189) scale(.56)" fill="#fff" stroke="#fff">
    <path d="M283.685 163C288.83 163 293 167.17 293 172.315V440C293 445.523 288.523 450 283 450H167C161.477 450 157 445.523 157 440L157 289.685C157 219.719 213.719 163 283.685 163Z" />
    <path d="M227.958 114L114 114L114 228C114 165.054 165.017 114.023 227.958 114Z" />
    <path d="M0 104.806C0 46.9234 46.9234 0 104.806 0H440.806C445.884 0 450 4.11609 450 9.19355C450 67.0766 403.077 114 345.194 114H9.19354C4.11608 114 0 109.884 0 104.806Z" />
    <path d="M104 94C109.523 94 114 98.4772 114 104L114 233.806C114 238.884 109.884 243 104.806 243C46.9234 243 3.16749e-06 196.077 5.69763e-06 138.194L7.19228e-06 104C7.43369e-06 98.4772 4.47716 94 10 94L104 94Z" />
  </g>
  <text x="448" y="225" fill="#9a8cff" font-family="Arial, Helvetica, sans-serif" font-size="24" font-weight="700" letter-spacing="3">API REFERENCE</text>
  <text x="448" y="304" fill="#f1f1f4" font-family="Arial, Helvetica, sans-serif" font-size="48" font-weight="700">@typeonce/effect-machine</text>
  <text x="448" y="366" fill="#c7c7d0" font-family="Arial, Helvetica, sans-serif" font-size="27">Schema-first state machines</text>
  <text x="448" y="404" fill="#c7c7d0" font-family="Arial, Helvetica, sans-serif" font-size="27">and statecharts for Effect</text>
  <text x="448" y="510" fill="#777784" font-family="Menlo, Monaco, monospace" font-size="19">effect-machine.typeonce.dev</text>
</svg>
